<mxfile host="app.diagrams.net" modified="2022-07-13T13:28:25.520Z" agent="5.0 (X11; Linux x86_64) AppleWebKit/537.36 (KHTML, like Gecko) Chrome/96.0.4664.45 Safari/537.36" etag="OGprS5dB9E7f1Y13HeMF" version="20.0.3" type="github">
  <diagram id="jwQoCXokOuNMi4iNPBc-" name="Page-1">
    <mxGraphModel dx="1085" dy="576" grid="1" gridSize="10" guides="1" tooltips="1" connect="1" arrows="1" fold="1" page="1" pageScale="1" pageWidth="827" pageHeight="1169" math="0" shadow="0">
      <root>
        <mxCell id="0" />
        <mxCell id="1" parent="0" />
        <mxCell id="K81SXenfLYUqwn9H40fJ-3" value="Vertical Container" style="swimlane;" vertex="1" parent="1">
          <mxGeometry x="160" y="90" width="490" height="640" as="geometry" />
        </mxCell>
        <mxCell id="K81SXenfLYUqwn9H40fJ-4" value="" style="verticalLabelPosition=bottom;shadow=0;dashed=0;align=center;html=1;verticalAlign=top;strokeWidth=1;shape=mxgraph.mockup.misc.map;" vertex="1" parent="K81SXenfLYUqwn9H40fJ-3">
          <mxGeometry x="55" y="70" width="380" height="380" as="geometry" />
        </mxCell>
        <mxCell id="K81SXenfLYUqwn9H40fJ-6" value="SOS" style="ellipse;whiteSpace=wrap;html=1;aspect=fixed;fontSize=42;fillColor=#0050ef;strokeColor=#001DBC;fontColor=#ffffff;" vertex="1" parent="K81SXenfLYUqwn9H40fJ-3">
          <mxGeometry x="180" y="480" width="130" height="130" as="geometry" />
        </mxCell>
        <mxCell id="K81SXenfLYUqwn9H40fJ-5" value="12" style="ellipse;whiteSpace=wrap;html=1;aspect=fixed;fillColor=#d5e8d4;strokeColor=#82b366;fontSize=24;" vertex="1" parent="K81SXenfLYUqwn9H40fJ-3">
          <mxGeometry x="170" y="100" width="40" height="40" as="geometry" />
        </mxCell>
        <mxCell id="K81SXenfLYUqwn9H40fJ-7" value="78" style="ellipse;whiteSpace=wrap;html=1;aspect=fixed;fillColor=#f8cecc;strokeColor=#b85450;fontSize=38;" vertex="1" parent="K81SXenfLYUqwn9H40fJ-3">
          <mxGeometry x="310" y="320" width="100" height="100" as="geometry" />
        </mxCell>
        <mxCell id="K81SXenfLYUqwn9H40fJ-10" value="" style="shape=image;html=1;verticalAlign=top;verticalLabelPosition=bottom;labelBackgroundColor=#ffffff;imageAspect=0;aspect=fixed;image=https://cdn4.iconfinder.com/data/icons/essential-app-1/16/pin-locate-map-location-drop-128.png;fontSize=24;" vertex="1" parent="K81SXenfLYUqwn9H40fJ-3">
          <mxGeometry x="210" y="236" width="48" height="48" as="geometry" />
        </mxCell>
        <mxCell id="K81SXenfLYUqwn9H40fJ-11" value="39" style="ellipse;whiteSpace=wrap;html=1;aspect=fixed;fontSize=36;fillColor=#fff2cc;strokeColor=#d6b656;" vertex="1" parent="K81SXenfLYUqwn9H40fJ-3">
          <mxGeometry x="70" y="250" width="70" height="70" as="geometry" />
        </mxCell>
        <mxCell id="K81SXenfLYUqwn9H40fJ-13" value="Light danger&lt;br style=&quot;font-size: 12px;&quot;&gt;Most recent report: 16 days ago" style="shape=callout;whiteSpace=wrap;html=1;perimeter=calloutPerimeter;fontSize=12;position2=0.08;size=30;position=0.17;" vertex="1" parent="K81SXenfLYUqwn9H40fJ-3">
          <mxGeometry x="210" y="40" width="120" height="80" as="geometry" />
        </mxCell>
        <mxCell id="K81SXenfLYUqwn9H40fJ-14" value="Medium danger&lt;br style=&quot;font-size: 12px;&quot;&gt;Most recent report: 59 minutes ago" style="shape=callout;whiteSpace=wrap;html=1;perimeter=calloutPerimeter;fontSize=12;position2=0.08;size=30;position=0.17;" vertex="1" parent="K81SXenfLYUqwn9H40fJ-3">
          <mxGeometry x="120" y="170" width="120" height="80" as="geometry" />
        </mxCell>
        <mxCell id="K81SXenfLYUqwn9H40fJ-15" value="Critical danger&lt;br&gt;Most recent report: 2 months 20 days ago" style="shape=callout;whiteSpace=wrap;html=1;perimeter=calloutPerimeter;fontSize=12;position2=0.83;size=36;position=0.58;base=20;" vertex="1" parent="K81SXenfLYUqwn9H40fJ-3">
          <mxGeometry x="300" y="250" width="120" height="80" as="geometry" />
        </mxCell>
      </root>
    </mxGraphModel>
  </diagram>
</mxfile>
